<svg id="图层_1" data-name="图层 1" xmlns="http://www.w3.org/2000/svg" viewBox="0 0 154.09 29.42"><defs><style>.cls-1{fill:#231815;}</style></defs><title>未标题-1</title><path class="cls-1" d="M29.48,52.67V23.25c6.69.62,10,.89,16.73,1.37v5c-4.05-.17-6.07-.26-10.12-.45v5.94l9.62.06V40c-3.85.1-5.77.15-9.62.27v6.36c4.19-.31,6.28-.45,10.46-.71v4.89C39.72,51.48,36.3,51.85,29.48,52.67Z" transform="translate(-29.48 -23.25)"/><path class="cls-1" d="M62.78,49.51c-3.15.22-4.73.34-7.88.59-3-9.71-4.57-14.76-7.61-25.4,2.89.21,4.34.3,7.23.48,1.87,7.34,2.81,10.9,4.67,17.87,2-7.11,3-10.57,4.92-17.33,2.59.14,3.88.2,6.46.31C67.46,35.09,65.9,39.76,62.78,49.51Z" transform="translate(-29.48 -23.25)"/><path class="cls-1" d="M72.52,48.92V26.11c6.69.27,10,.37,16.73.51v4.1c-4,0-6.07-.08-10.11-.15v4.71h9.62v4c-3.85,0-5.77,0-9.62.09v5c4.18-.12,6.27-.16,10.45-.24v4C82.76,48.42,79.35,48.55,72.52,48.92Z" transform="translate(-29.48 -23.25)"/><path class="cls-1" d="M106.44,48a19.64,19.64,0,0,1-.58-2.61c-.16-.93-.28-1.88-.44-2.79-.4-2.37-.86-3-3.34-3H99.67v8.45c-2.73,0-4.1.05-6.83.11V26.69c4.29.07,6.44.09,10.73.11,2.69,0,4.3.11,5.81.79a4.9,4.9,0,0,1,3.19,4.57,5,5,0,0,1-2.08,4.09,8,8,0,0,1-3.12,1.23c3.06.12,4.18,2.15,4.61,4.26.25,1.24.45,2.52.65,3.77a10.1,10.1,0,0,0,.74,2.54C110.6,48,109.21,48,106.44,48Zm-4.6-17.37H99.67v5.23h2.1c2.39,0,4.33-.44,4.33-2.67S104.34,30.64,101.84,30.64Z" transform="translate(-29.48 -23.25)"/><path class="cls-1" d="M130.47,48.46V39.39l-7.11-.06v8.9c-2.75-.07-4.12-.1-6.87-.14V26.74c2.75,0,4.12,0,6.87-.11v8.61l7.11,0V26.46c2.75-.08,4.12-.13,6.87-.23V48.76C134.59,48.62,133.22,48.56,130.47,48.46Z" transform="translate(-29.48 -23.25)"/><path class="cls-1" d="M160.68,47c-2,2.38-4.94,3.48-8.84,3.19-7.33-.54-11.13-5.36-11.13-12.65s3.92-12,11.44-12.48,11.19,4.57,11.19,12.67C163.34,41.7,162.47,44.8,160.68,47Zm-5.47-15.41A3.21,3.21,0,0,0,152,29.46c-1.76.06-2.79,1.12-3.46,3a16.09,16.09,0,0,0-.77,5.16c0,4.5,1,8,4.2,8.13s4.3-3.35,4.3-8.12A15.14,15.14,0,0,0,155.21,31.55Z" transform="translate(-29.48 -23.25)"/><path class="cls-1" d="M176.79,29.24V51.89c-2.74-.3-4.11-.45-6.86-.72V29.54c-2.7.12-4.05.17-6.74.27V24.88c8.15-.55,12.23-.88,20.38-1.63v5.66Z" transform="translate(-29.48 -23.25)"/></svg>